<svg width="107" height="121" viewBox="0 0 107 121" fill="none" xmlns="http://www.w3.org/2000/svg">
<path d="M53.0464 101.118C65.933 101.118 76.3797 90.6716 76.3797 77.785C76.3797 64.8983 65.933 54.4516 53.0464 54.4516C40.1597 54.4516 29.713 64.8983 29.713 77.785C29.713 90.6716 40.1597 101.118 53.0464 101.118Z" stroke="#292D32" stroke-width="4" stroke-miterlimit="10" stroke-linecap="round" stroke-linejoin="round"/>
<path d="M59.288 84.26L46.9213 71.9516" stroke="#292D32" stroke-width="4" stroke-miterlimit="10" stroke-linecap="round" stroke-linejoin="round"/>
<path d="M59.1714 72.0683L46.8047 84.435" stroke="#292D32" stroke-width="4" stroke-miterlimit="10" stroke-linecap="round" stroke-linejoin="round"/>
<path d="M35.5464 118.618H70.5464C93.9964 118.618 98.1964 109.227 99.4214 97.7933L103.796 62.7933C105.371 48.56 101.288 36.9516 76.3797 36.9516H29.713C4.80469 36.9516 0.721352 48.56 2.29635 62.7933L6.67135 97.7933C7.89635 109.227 12.0964 118.618 35.5464 118.618Z" stroke="#292D32" stroke-width="4" stroke-miterlimit="10" stroke-linecap="round" stroke-linejoin="round"/>
<path d="M26.7964 35.0266V29.3683C26.7964 16.2433 37.3547 3.35163 50.4797 2.12663C66.113 0.609963 79.2964 12.9183 79.2964 28.26V36.31" stroke="#292D32" stroke-width="4" stroke-miterlimit="10" stroke-linecap="round" stroke-linejoin="round"/>
</svg>
